<svg height="512" viewBox="0 0 64 64" width="512" xmlns="http://www.w3.org/2000/svg" xmlns:xlink="http://www.w3.org/1999/xlink"><linearGradient id="New_Gradient_Swatch" gradientUnits="userSpaceOnUse" x1="32" x2="32" y1="64.822" y2=".072"><stop offset="0" stop-color="#e93e3a"/><stop offset=".35" stop-color="#ed683c"/><stop offset=".7" stop-color="#f3903f"/><stop offset="1" stop-color="#fdc70c"/></linearGradient><linearGradient id="New_Gradient_Swatch-2" x1="11" x2="11" xlink:href="#New_Gradient_Swatch" y1="64.822" y2=".072"/><linearGradient id="New_Gradient_Swatch-3" x1="15" x2="15" xlink:href="#New_Gradient_Swatch" y1="64.822" y2=".072"/><linearGradient id="New_Gradient_Swatch-4" x1="49" x2="49" xlink:href="#New_Gradient_Swatch" y1="64.822" y2=".072"/><linearGradient id="New_Gradient_Swatch-5" x1="53" x2="53" xlink:href="#New_Gradient_Swatch" y1="64.822" y2=".072"/><linearGradient id="New_Gradient_Swatch-6" x1="16" x2="16" xlink:href="#New_Gradient_Swatch" y1="64.822" y2=".072"/><linearGradient id="New_Gradient_Swatch-7" x1="12" x2="12" xlink:href="#New_Gradient_Swatch" y1="64.822" y2=".072"/><linearGradient id="New_Gradient_Swatch-8" x1="20" x2="20" xlink:href="#New_Gradient_Swatch" y1="64.822" y2=".072"/><linearGradient id="New_Gradient_Swatch-9" x1="24" x2="24" xlink:href="#New_Gradient_Swatch" y1="64.822" y2=".072"/><linearGradient id="New_Gradient_Swatch-10" x1="28" x2="28" xlink:href="#New_Gradient_Swatch" y1="64.822" y2=".072"/><linearGradient id="New_Gradient_Swatch-12" x1="36" x2="36" xlink:href="#New_Gradient_Swatch" y1="64.822" y2=".072"/><linearGradient id="New_Gradient_Swatch-13" x1="40" x2="40" xlink:href="#New_Gradient_Swatch" y1="64.822" y2=".072"/><linearGradient id="New_Gradient_Swatch-14" x1="44" x2="44" xlink:href="#New_Gradient_Swatch" y1="64.822" y2=".072"/><linearGradient id="New_Gradient_Swatch-15" x1="48" x2="48" xlink:href="#New_Gradient_Swatch" y1="64.822" y2=".072"/><linearGradient id="New_Gradient_Swatch-16" x1="52" x2="52" xlink:href="#New_Gradient_Swatch" y1="64.822" y2=".072"/><linearGradient id="New_Gradient_Swatch-19" x1="29" x2="29" xlink:href="#New_Gradient_Swatch" y1="64.822" y2=".072"/><linearGradient id="New_Gradient_Swatch-20" x1="23" x2="23" xlink:href="#New_Gradient_Swatch" y1="64.822" y2=".072"/><linearGradient id="New_Gradient_Swatch-21" x1="31" x2="31" xlink:href="#New_Gradient_Swatch" y1="64.822" y2=".072"/><linearGradient id="New_Gradient_Swatch-24" x1="25" x2="25" xlink:href="#New_Gradient_Swatch" y1="64.822" y2=".072"/><linearGradient id="New_Gradient_Swatch-26" x1="35" x2="35" xlink:href="#New_Gradient_Swatch" y1="64.822" y2=".072"/><linearGradient id="New_Gradient_Swatch-29" x1="34" x2="34" xlink:href="#New_Gradient_Swatch" y1="64.822" y2=".072"/><linearGradient id="New_Gradient_Swatch-30" x1="26" x2="26" xlink:href="#New_Gradient_Swatch" y1="64.822" y2=".072"/><path d="m61.9 56.553-5.9-11.789v-30.941l.83-1.438a5 5 0 0 0 -8.66-5l-1.144 1.982-5.226-6.967a1 1 0 0 0 -.8-.4h-22a3 3 0 0 0 -3 3v5h-5a3 3 0 0 0 -3 3v31.764l-5.895 11.789a1 1 0 0 0 -.105.447v3a2 2 0 0 0 2 2h56a2 2 0 0 0 2-2v-3a1 1 0 0 0 -.1-.447zm-21.282-.553-1.718-3.447a1 1 0 0 0 -.9-.553h-12a1 1 0 0 0 -.895.553l-1.723 3.447h-18.764l5-10h44.764l5 10zm-2.236 0h-12.764l1-2h10.764zm-.248-23.232 1-1.732 1.732 1-1 1.732a1 1 0 0 1 -1.732-1zm4.135-2.232-2.538-1.465-.154-2.4 4.846 2.8zm3.329-2.7-1.732-1 5.5-9.527-1.732-1-5.5 9.526-1.732-1 6.5-11.258 5.2 3zm-3.598-21.836 3 4h-3zm11.1 8.849-5.2-3 .5-.866 5.2 3zm-1.376-7.862a3 3 0 0 1 3.374 4.4l-.5.866-5.2-3 .5-.866a2.984 2.984 0 0 1 1.826-1.4zm-33.724-1.987a1 1 0 0 1 1-1h21v6a2 2 0 0 0 2 2h3.506l-7.836 13.572a.994.994 0 0 0 -.132.564l.212 3.3-1.35 2.333a3 3 0 0 0 5.2 3l1.348-2.336 2.96-1.464c.034-.017.061-.044.093-.064v6.095a1 1 0 0 1 -1 1h-26.001a1 1 0 0 1 -1-1zm-8 8a1 1 0 0 1 1-1h5v25a3 3 0 0 0 3 3h26a3 3 0 0 0 3-3v-9.321l6-10.392v26.713h-44zm-6 47v-2h56v2z" fill="url(#New_Gradient_Swatch)"/><path d="m10 52h2v2h-2z" fill="url(#New_Gradient_Swatch-2)"/><path d="m14 52h2v2h-2z" fill="url(#New_Gradient_Swatch-3)"/><path d="m48 52h2v2h-2z" fill="url(#New_Gradient_Swatch-4)"/><path d="m52 52h2v2h-2z" fill="url(#New_Gradient_Swatch-5)"/><path d="m15 48h2v2h-2z" fill="url(#New_Gradient_Swatch-6)"/><path d="m11 48h2v2h-2z" fill="url(#New_Gradient_Swatch-7)"/><path d="m19 48h2v2h-2z" fill="url(#New_Gradient_Swatch-8)"/><path d="m23 48h2v2h-2z" fill="url(#New_Gradient_Swatch-9)"/><path d="m27 48h2v2h-2z" fill="url(#New_Gradient_Swatch-10)"/><path d="m31 48h2v2h-2z" fill="url(#New_Gradient_Swatch)"/><path d="m35 48h2v2h-2z" fill="url(#New_Gradient_Swatch-12)"/><path d="m39 48h2v2h-2z" fill="url(#New_Gradient_Swatch-13)"/><path d="m43 48h2v2h-2z" fill="url(#New_Gradient_Swatch-14)"/><path d="m47 48h2v2h-2z" fill="url(#New_Gradient_Swatch-15)"/><path d="m51 48h2v2h-2z" fill="url(#New_Gradient_Swatch-16)"/><path d="m18 52h4v2h-4z" fill="url(#New_Gradient_Swatch-8)"/><path d="m42 52h4v2h-4z" fill="url(#New_Gradient_Swatch-14)"/><path d="m22 12h14v2h-14z" fill="url(#New_Gradient_Swatch-19)"/><path d="m22 8h2v2h-2z" fill="url(#New_Gradient_Swatch-20)"/><path d="m26 8h10v2h-10z" fill="url(#New_Gradient_Swatch-21)"/><path d="m22 16h18v2h-18z" fill="url(#New_Gradient_Swatch-21)"/><path d="m22 20h14v2h-14z" fill="url(#New_Gradient_Swatch-19)"/><path d="m22 24h6v2h-6z" fill="url(#New_Gradient_Swatch-24)"/><path d="m30 24h2v2h-2z" fill="url(#New_Gradient_Swatch-21)"/><path d="m34 24h2v2h-2z" fill="url(#New_Gradient_Swatch-26)"/><path d="m22 28h4v2h-4z" fill="url(#New_Gradient_Swatch-9)"/><path d="m28 28h2v2h-2z" fill="url(#New_Gradient_Swatch-19)"/><path d="m32 28h4v2h-4z" fill="url(#New_Gradient_Swatch-29)"/><path d="m22 32h8v2h-8z" fill="url(#New_Gradient_Swatch-30)"/></svg>