<svg height="512" viewBox="0 0 64 64" width="512" xmlns="http://www.w3.org/2000/svg" xmlns:xlink="http://www.w3.org/1999/xlink"><linearGradient id="linear-gradient" gradientUnits="userSpaceOnUse" x1="9.464" x2="76.144" y1="75.797" y2="9.117"><stop offset="0" stop-color="#003f8a"/><stop offset=".518" stop-color="#00d7df"/><stop offset="1" stop-color="#006df0"/></linearGradient><linearGradient id="linear-gradient-2" x1="19.333" x2="86.013" xlink:href="#linear-gradient" y1="85.667" y2="18.987"/><linearGradient id="linear-gradient-3" x1="23.083" x2="89.763" xlink:href="#linear-gradient" y1="89.417" y2="22.737"/><linearGradient id="linear-gradient-4" x1="-4.667" x2="62.013" xlink:href="#linear-gradient" y1="61.667" y2="-5.013"/><linearGradient id="linear-gradient-5" x1="-.917" x2="65.763" xlink:href="#linear-gradient" y1="65.417" y2="-1.263"/><linearGradient id="linear-gradient-6" x1="-21.167" x2="45.513" xlink:href="#linear-gradient" y1="45.167" y2="-21.513"/><linearGradient id="linear-gradient-7" x1="-17.417" x2="49.263" xlink:href="#linear-gradient" y1="48.917" y2="-17.763"/><linearGradient id="linear-gradient-8" x1="-13.753" x2="52.927" xlink:href="#linear-gradient" y1="52.58" y2="-14.1"/><linearGradient id="linear-gradient-9" x1="-1.667" x2="65.013" xlink:href="#linear-gradient" y1="64.667" y2="-2.013"/><linearGradient id="linear-gradient-10" x1="9.822" x2="76.502" xlink:href="#linear-gradient" y1="76.155" y2="9.475"/><linearGradient id="linear-gradient-11" x1="-13.074" x2="53.606" xlink:href="#linear-gradient" y1="53.26" y2="-13.42"/><path d="m61 1a1 1 0 0 0 -1 1v8h-2v-8a1 1 0 0 0 -2 0v8h-2v-8a1 1 0 0 0 -2 0v8h-2v-8a1 1 0 0 0 -2 0v11a5.009 5.009 0 0 0 4 4.9v13.1a1 1 0 0 0 -1 .928l-1.864 25.9a5 5 0 0 0 5 5.167h1.728a5 5 0 0 0 5-5.2l-1.864-25.867a1 1 0 0 0 -1-.928v-13.1a5.009 5.009 0 0 0 4-4.9v-11a1 1 0 0 0 -1-1zm-2.137 56.9a3 3 0 0 1 -3 3.1h-1.727a3 3 0 0 1 -3-3.062l1.795-24.938h4.138zm-4.863-26.9v-13h2v13zm6-18a3 3 0 0 1 -3 3h-4a3 3 0 0 1 -3-3v-1h10z" fill="url(#linear-gradient)"/><path d="m54 46a1 1 0 0 0 -1 1v8a1 1 0 0 0 2 0v-8a1 1 0 0 0 -1-1z" fill="url(#linear-gradient-2)"/><path d="m54 57a1 1 0 0 0 -1 1v1a1 1 0 0 0 2 0v-1a1 1 0 0 0 -1-1z" fill="url(#linear-gradient-3)"/><path d="m6 46a1 1 0 0 0 -1 1v8a1 1 0 0 0 2 0v-8a1 1 0 0 0 -1-1z" fill="url(#linear-gradient-4)"/><path d="m6 57a1 1 0 0 0 -1 1v1a1 1 0 0 0 2 0v-1a1 1 0 0 0 -1-1z" fill="url(#linear-gradient-5)"/><path d="m11 18a1 1 0 0 0 1-1v-8a1 1 0 0 0 -2 0v8a1 1 0 0 0 1 1z" fill="url(#linear-gradient-6)"/><path d="m11 22a1 1 0 0 0 1-1v-1a1 1 0 0 0 -2 0v1a1 1 0 0 0 1 1z" fill="url(#linear-gradient-7)"/><path d="m11 35h-1v-3.434l4.515-2.709a1 1 0 0 0 .485-.857v-17a9.884 9.884 0 0 0 -2.931-7.064 9.888 9.888 0 0 0 -7.069-2.936 1 1 0 0 0 -1 1v33h-1a1 1 0 0 0 -1 1v22a5 5 0 0 0 10 0v-22a1 1 0 0 0 -1-1zm-5-31.938a7.886 7.886 0 0 1 4.655 2.288 7.905 7.905 0 0 1 2.345 5.65v16.434l-4.515 2.709a1 1 0 0 0 -.485.857v4h-2zm4 54.938a3 3 0 0 1 -6 0v-21h6z" fill="url(#linear-gradient-8)"/><path d="m46 32a15 15 0 1 0 -15 15 15.017 15.017 0 0 0 15-15zm-28 0a13 13 0 1 1 13 13 13.015 13.015 0 0 1 -13-13z" fill="url(#linear-gradient-9)"/><path d="m46.4 54.179a27.012 27.012 0 0 1 -30.829-.018 1 1 0 1 0 -1.144 1.64 29.013 29.013 0 0 0 33.116.02 1 1 0 0 0 -1.143-1.642z" fill="url(#linear-gradient-10)"/><path d="m31 3a28.913 28.913 0 0 0 -15.537 4.509 1 1 0 1 0 1.074 1.691 27.019 27.019 0 0 1 29.891.643 1 1 0 0 0 1.144-1.643 28.825 28.825 0 0 0 -16.572-5.2z" fill="url(#linear-gradient-11)"/></svg>